<?xml version="1.0" encoding="utf-8"?><svg viewBox="0 0 56 58" xmlns="http://www.w3.org/2000/svg" xmlns:xlink="http://www.w3.org/1999/xlink"><style>:root>svg{display:none}:root>svg:target{display:block}</style><svg fill="none" viewBox="0 0 50 46" id="1" xmlns="http://www.w3.org/2000/svg"><path fill-rule="evenodd" clip-rule="evenodd" d="M0 2.556C0 1.144 1.12 0 2.5 0h5c1.164 0 2.174.821 2.436 1.98l7.053 31.242h21.059l6.25-25.555H25c-1.38 0-2.5-1.145-2.5-2.556s1.12-2.555 2.5-2.555h22.5c.77 0 1.497.362 1.97.982a2.6 2.6 0 0 1 .455 2.193l-7.5 30.666c-.278 1.138-1.278 1.936-2.425 1.936H15c-1.164 0-2.174-.821-2.436-1.98L5.511 5.11H2.5C1.12 5.111 0 3.967 0 2.556ZM20 5.11c0 1.411-1.12 2.556-2.5 2.556S15 6.522 15 5.11s1.12-2.555 2.5-2.555S20 3.7 20 5.11Zm10 10.222c0-1.411-1.12-2.555-2.5-2.555S25 13.922 25 15.333v4.053l-.732-.749a2.462 2.462 0 0 0-3.536 0 2.596 2.596 0 0 0 0 3.614l5 5.112c.977.997 2.56.997 3.536 0l5-5.111a2.596 2.596 0 0 0 0-3.615 2.462 2.462 0 0 0-3.536 0l-.732.749v-4.053ZM17.5 46c1.38 0 2.5-1.144 2.5-2.556 0-1.411-1.12-2.555-2.5-2.555S15 42.033 15 43.444C15 44.856 16.12 46 17.5 46ZM40 43.444C40 44.856 38.88 46 37.5 46S35 44.856 35 43.444c0-1.411 1.12-2.555 2.5-2.555s2.5 1.144 2.5 2.555Z" fill="#fff"/></svg><svg fill="none" viewBox="0 0 40 50" id="2" xmlns="http://www.w3.org/2000/svg"><path d="M27.5 15h11L25 1.5v11c0 1.5 1 2.5 2.5 2.5Zm0 5c-4.25 0-7.5-3.25-7.5-7.5V0H7.5C3.25 0 0 3.25 0 7.5v35C0 46.75 3.25 50 7.5 50h25c4.25 0 7.5-3.25 7.5-7.5V20H27.5Zm-15-5H15c1.5 0 2.5 1 2.5 2.5S16.5 20 15 20h-2.5C11 20 10 19 10 17.5s1-2.5 2.5-2.5Zm15 25h-15C11 40 10 39 10 37.5s1-2.5 2.5-2.5h15c1.5 0 2.5 1 2.5 2.5S29 40 27.5 40Zm0-10h-15C11 30 10 29 10 27.5s1-2.5 2.5-2.5h15c1.5 0 2.5 1 2.5 2.5S29 30 27.5 30Z" fill="#fff"/></svg><svg fill="none" viewBox="0 0 56 57" id="3" xmlns="http://www.w3.org/2000/svg"><path d="M28.517 13.22c-8.57 0-15.497 6.927-15.497 15.497s6.927 15.498 15.497 15.498 15.498-6.927 15.498-15.498c0-8.57-6.927-15.497-15.498-15.497Zm3.992 21.015c-.822.705-1.878 1.057-3.17 1.174v1.41h-1.291v-1.41a9.385 9.385 0 0 1-4.814-2.113l1.409-1.761c1.056.94 2.23 1.526 3.405 1.761V29.54c-1.527-.352-2.583-.822-3.288-1.409-.587-.587-.939-1.526-.939-2.583 0-1.174.352-1.996 1.174-2.817.822-.705 1.761-1.057 3.053-1.175v-.939h1.291v1.057a8.04 8.04 0 0 1 4.11 1.526l-1.292 1.761c-.822-.587-1.761-.939-2.818-1.174v3.64c1.526.352 2.583.822 3.287 1.409.705.587 1.057 1.526 1.057 2.583.117 1.174-.352 2.113-1.174 2.817Z" fill="#fff"/><path d="M26.17 25.313c0 .47.116.822.351 1.056.235.235.705.47 1.527.705v-3.405c-.587 0-1.057.235-1.41.47-.234.352-.469.704-.469 1.174ZM29.339 29.774v3.522c.587-.117 1.174-.235 1.526-.587.353-.352.587-.704.587-1.174s-.117-.822-.47-1.057c-.351-.235-.821-.47-1.643-.704ZM5.506 27.308c.352-5.753 2.817-11.153 6.927-15.145 8.922-8.688 23.129-8.688 32.051-.117l-2.348-.353c-1.291-.117-2.348.705-2.583 1.879-.117 1.174.705 2.348 1.879 2.583l7.983 1.056h.353c.47 0 .939-.117 1.408-.47.47-.351.822-.938.822-1.525l1.057-7.984c.117-1.291-.704-2.348-1.879-2.583-1.29-.117-2.348.705-2.582 1.879l-.353 2.7C43.075 3.945 36.266 1.01 28.87.892 21.59 1.01 14.546 3.827 9.263 8.993 4.332 13.807 1.397 20.264.927 27.073c-.118 1.292.822 2.349 2.113 2.349h.118c1.291 0 2.23-.94 2.348-2.114ZM53.994 28.013c-1.174-.118-2.348.822-2.348 2.113-.352 5.753-2.818 11.154-6.927 15.146-9.04 8.688-23.246 8.688-32.169 0l2.583.234a2.25 2.25 0 0 0 2.466-1.996 2.25 2.25 0 0 0-1.996-2.465l-8.219-.822c-.587-.117-1.174.117-1.643.47-.47.352-.705.939-.822 1.526l-.822 7.983a2.25 2.25 0 0 0 1.996 2.466h.235c1.174 0 2.113-.822 2.23-1.996l.235-2.583c5.4 5.518 12.563 8.219 19.607 8.219a27.775 27.775 0 0 0 19.254-7.75c4.931-4.813 7.866-11.27 8.336-18.08a2.251 2.251 0 0 0-1.996-2.465Z" fill="#fff"/></svg><svg fill="none" viewBox="0 0 50 58" id="4" xmlns="http://www.w3.org/2000/svg"><path d="M9.42 39.96H-.009l12.041 12.124v-9.466a2.658 2.658 0 0 0-2.612-2.659Z" fill="#fff"/><path d="M36.439.298H2.603A2.65 2.65 0 0 0-.009 2.956v34.521h9.43a5.159 5.159 0 0 1 5.15 5.15v9.457h11.54a13.606 13.606 0 0 1-1-5.15 13.894 13.894 0 0 1 13.893-13.829h.13V2.956A2.657 2.657 0 0 0 36.44.298ZM33.225 29.52H5.817a1.25 1.25 0 1 1 0-2.492h27.417a1.251 1.251 0 1 1 0 2.492h-.01Zm0-7.475H5.817a1.25 1.25 0 1 1 0-2.492h27.417a1.25 1.25 0 1 1 0 2.492h-.01Zm0-7.484H5.817a1.25 1.25 0 1 1 0-2.492h27.417a1.251 1.251 0 1 1 0 2.492h-.01Zm0-7.475H5.817a1.25 1.25 0 1 1 0-2.492h27.417a1.25 1.25 0 1 1 0 2.492h-.01Z" fill="#fff"/><path d="M39.106 35.884h-.13a11.115 11.115 0 0 0-11.114 11.05 10.856 10.856 0 0 0 1.287 5.15 11.06 11.06 0 1 0 9.957-16.2Zm-3.964 16.672-3.659-3.603a1.494 1.494 0 0 1 2.112-2.111l2.557 2.556 8.123-8.105a1.5 1.5 0 0 1 2.12 0 1.5 1.5 0 0 1 0 2.112l-9.169 9.17a1.5 1.5 0 0 1-2.093-.01l.009-.008Z" fill="#fff"/></svg><svg fill="none" viewBox="0 0 19 14" id="arrow" xmlns="http://www.w3.org/2000/svg"><path d="M17.968 6.183 10.468.35a1.75 1.75 0 0 0-2.1 0c-.6.467-.6 1.167 0 1.633l4.95 3.85h-11.4c-.9 0-1.5.467-1.5 1.167s.6 1.167 1.5 1.167h11.4l-4.95 3.85c-.6.466-.6 1.166 0 1.633.6.467 1.5.467 2.1 0l7.5-5.833c.6-.35.6-1.167 0-1.634Z" fill="#E1400F"/></svg><svg fill="none" viewBox="0 0 16 20" id="geo" xmlns="http://www.w3.org/2000/svg"><path d="M8 0a8.009 8.009 0 0 0-8 8c0 3.255 2.363 5.958 4.866 8.819.792.906 1.612 1.843 2.342 2.791a1 1 0 0 0 1.584 0c.73-.948 1.55-1.885 2.342-2.791C13.637 13.958 16 11.255 16 8a8.009 8.009 0 0 0-8-8Zm0 11a3 3 0 1 1 0-6 3 3 0 0 1 0 6Z" fill="#FAFAFA"/></svg><svg fill="none" viewBox="0 0 53 35" id="icon-burger-menu" xmlns="http://www.w3.org/2000/svg"><path d="M51.324 15.828H3.692c-.642 0-1.29-.005-1.932 0h-.084c-.876 0-1.714.77-1.675 1.672.04.908.737 1.672 1.675 1.672H49.31c.642 0 1.29.005 1.931 0h.084c.876 0 1.714-.77 1.675-1.672-.045-.908-.737-1.672-1.675-1.672Zm0-15.826H3.692c-.642 0-1.29-.005-1.932 0h-.084C.8.002-.038.772.001 1.674c.04.909.737 1.672 1.675 1.672H49.31c.642 0 1.29.006 1.931 0h.084c.876 0 1.714-.769 1.675-1.672-.045-.908-.737-1.672-1.675-1.672Zm0 31.652H3.692c-.642 0-1.29-.006-1.932 0h-.084c-.876 0-1.714.769-1.675 1.672.04.908.737 1.672 1.675 1.672H49.31c.642 0 1.29.005 1.931 0h.084c.876 0 1.714-.77 1.675-1.672-.045-.909-.737-1.672-1.675-1.672Z" fill="#fff"/></svg><svg viewBox="0 0 32 32" id="icon-burger-menu-open" xmlns="http://www.w3.org/2000/svg"><g data-name="menu"><path d="M29 6H3a1 1 0 0 0 0 2h26a1 1 0 0 0 0-2ZM3 17h13a1 1 0 0 0 0-2H3a1 1 0 0 0 0 2ZM25 24H3a1 1 0 0 0 0 2h22a1 1 0 0 0 0-2Z"/></g></svg><svg fill="none" viewBox="0 0 21 15" id="mail" xmlns="http://www.w3.org/2000/svg"><path d="M6.415 7.5 0 12.205v-9.41L6.415 7.5Zm8.17 0L21 12.205v-9.41L14.585 7.5Zm-.938.69-2.868 2.102a.48.48 0 0 1-.279.093.48.48 0 0 1-.28-.093L7.354 8.19.425 13.27l-.402.294C.149 14.377.779 15 1.537 15h17.926c.758 0 1.389-.62 1.514-1.437l-.405-.294-6.925-5.08Zm-3.147.928 10.072-7.387.405-.294C20.852.62 20.221 0 19.463 0H1.537C.779 0 .149.623.023 1.437l.402.294L10.5 9.118Z" fill="#FAFAFA"/></svg><svg fill="none" viewBox="0 0 24 24" id="phone" xmlns="http://www.w3.org/2000/svg"><path d="M22.904 17.414c-.995-1.023-3.824-2.939-5.679-2.939-.43 0-.804.095-1.11.293-.907.58-1.63 1.03-1.978 1.03-.19 0-.395-.17-.845-.56l-.075-.067c-1.248-1.085-1.514-1.364-1.998-1.869l-.122-.13c-.089-.088-.164-.17-.239-.245-.423-.436-.73-.75-1.813-1.977l-.048-.054c-.518-.587-.859-.969-.88-1.248-.02-.273.219-.716.825-1.541.737-.996.764-2.223.089-3.648-.539-1.125-1.418-2.202-2.195-3.15l-.068-.082C6.1.41 5.322 0 4.457 0c-.962 0-1.76.518-2.182.79-.034.021-.068.049-.102.07-.948.6-1.636 1.424-1.895 2.263-.389 1.261-.648 2.897 1.213 6.3 1.609 2.945 3.068 4.922 5.386 7.302 2.181 2.236 3.15 2.96 5.317 4.527C14.608 22.998 16.925 24 18.548 24c1.507 0 2.693 0 4.384-2.039 1.772-2.14 1.036-3.45-.028-4.547Z" fill="#FAFAFA"/></svg></svg>